<svg width="14" height="16" viewBox="0 0 14 16" fill="none" xmlns="http://www.w3.org/2000/svg">
<path fill-rule="evenodd" clip-rule="evenodd" d="M13.9269 8.36415C13.9721 8.25151 13.9961 8.13151 13.9979 8.01016L13.9999 8.00116L13.9979 7.99116C13.9961 7.86949 13.972 7.74918 13.9269 7.63616C13.9069 7.58816 13.8749 7.54916 13.8489 7.50416C13.8189 7.45217 13.7989 7.39717 13.7589 7.35017L7.75897 0.350273C7.58537 0.152267 7.34068 0.0307287 7.07801 0.0120439C6.81534 -0.00664077 6.55591 0.0790361 6.35603 0.250475C6.15615 0.421913 6.03196 0.665274 6.01042 0.927723C5.98889 1.19017 6.07174 1.45052 6.241 1.65225L10.8249 7.00117H1.00008C0.734864 7.00117 0.480514 7.10653 0.292981 7.29406C0.105447 7.48159 9.15527e-05 7.73594 9.15527e-05 8.00116C9.15527e-05 8.26637 0.105447 8.52072 0.292981 8.70825C0.480514 8.89579 0.734864 9.00114 1.00008 9.00114H10.8249L6.241 14.3491C6.15551 14.4487 6.09049 14.5643 6.04965 14.6891C6.00881 14.8139 5.99295 14.9455 6.00298 15.0764C6.01301 15.2073 6.04873 15.335 6.1081 15.4521C6.16747 15.5693 6.24932 15.6735 6.349 15.759C6.44867 15.8445 6.5642 15.9095 6.689 15.9504C6.8138 15.9912 6.94542 16.0071 7.07635 15.9971C7.20728 15.987 7.33495 15.9513 7.45208 15.8919C7.5692 15.8326 7.67348 15.7507 7.75897 15.651L13.7589 8.65115C13.7989 8.60415 13.8189 8.54815 13.8489 8.49715C13.8749 8.45215 13.9069 8.41315 13.9269 8.36415Z" fill="#404040"/>
</svg>
