<svg width="95" height="26" viewBox="0 0 95 26" fill="none" xmlns="http://www.w3.org/2000/svg">
<g clip-path="url(#clip0)">
<path d="M74.8384 7.97433L78.3275 5.37567H66.6466V20.9421H78.3275V18.3435H69.984V14.3691H77.1139V11.7704H69.984V7.97433H74.8384Z" fill="#21A038"/>
<path d="M57.8228 11.4392H53.7775V7.97433H60.25L63.739 5.37567H50.4401V20.9421H57.393C61.2866 20.9421 63.5368 19.1587 63.5368 16.0505C63.5368 13.0697 61.5141 11.4392 57.8228 11.4392ZM57.2665 18.3435H53.7775V14.0379H57.2665C59.3903 14.0379 60.3764 14.7512 60.3764 16.2034C60.3764 17.6556 59.3145 18.3435 57.2665 18.3435Z" fill="#21A038"/>
<path d="M87.7833 5.37567H81.4373V20.9421H84.7746V16.5346H87.8086C91.8539 16.5346 94.3823 14.3945 94.3823 10.9551C94.3823 7.51574 91.8539 5.37567 87.7833 5.37567ZM87.7075 13.936H84.7494V7.97433H87.7075C89.8566 7.97433 91.0196 9.04436 91.0196 10.9551C91.0196 12.8659 89.8566 13.936 87.7075 13.936Z" fill="#21A038"/>
<path d="M44.726 17.5791C43.8411 18.0631 42.8551 18.3179 41.8437 18.3179C38.835 18.3179 36.6607 16.1523 36.6607 13.1715C36.6607 10.1907 38.835 8.02518 41.8437 8.02518C42.9309 7.9997 43.9928 8.35638 44.8777 8.99331L47.2796 7.20991L47.1279 7.05705C45.7374 5.80868 43.8664 5.17175 41.7426 5.17175C39.4418 5.17175 37.3433 5.96154 35.8263 7.38825C34.3093 8.86592 33.4497 10.9296 33.5003 13.0696C33.475 15.2352 34.3093 17.3243 35.8263 18.8529C37.4192 20.3561 39.543 21.1968 41.7173 21.1458C44.1192 21.1458 46.2177 20.3051 47.6336 18.7765L45.4845 17.1714L44.726 17.5791Z" fill="#21A038"/>
<path d="M23.0582 5.27368C23.665 6.06347 24.1707 6.92969 24.6005 7.84686L12.9196 16.5345L8.01467 13.4263V9.70668L12.8943 12.7894L23.0582 5.27368Z" fill="#21A038"/>
<path d="M3.03382 13.1717C3.03382 12.9933 3.03382 12.8405 3.05911 12.6621L0.100968 12.5093C0.100968 12.7131 0.0756845 12.9424 0.0756845 13.1462C0.0756845 16.713 1.51683 19.9486 3.84289 22.2925L5.9414 20.1779C4.14629 18.3945 3.03382 15.9232 3.03382 13.1717Z" fill="url(#paint0_linear)"/>
<path d="M12.8942 3.23551C13.0712 3.23551 13.2229 3.23551 13.3999 3.26099L13.5516 0.280177C13.3493 0.280177 13.1218 0.2547 12.9195 0.2547C9.37985 0.2547 6.16888 1.70689 3.84282 4.05078L5.94133 6.16537C7.71116 4.3565 10.1889 3.23551 12.8942 3.23551Z" fill="url(#paint1_linear)"/>
<path d="M12.8944 23.1077C12.7174 23.1077 12.5657 23.1077 12.3887 23.0822L12.237 26.063C12.4393 26.063 12.6668 26.0885 12.8691 26.0885C16.4087 26.0885 19.6197 24.6363 21.9458 22.2924L19.8473 20.1778C18.0774 22.0121 15.625 23.1077 12.8944 23.1077Z" fill="url(#paint2_linear)"/>
<path d="M18.4567 4.96804L20.9598 3.10821C18.7601 1.32482 15.9537 0.229309 12.8944 0.229309V3.21012C14.9676 3.2356 16.8892 3.87252 18.4567 4.96804Z" fill="url(#paint3_linear)"/>
<path d="M25.7383 13.1717C25.7383 12.3819 25.6624 11.6176 25.536 10.8533L22.7801 12.9169C22.7801 12.9933 22.7801 13.0952 22.7801 13.1717C22.7801 16.1015 21.516 18.7257 19.5186 20.5345L21.516 22.751C24.0949 20.4072 25.7383 16.9678 25.7383 13.1717Z" fill="#21A038"/>
<path d="M12.8943 23.1077C9.98674 23.1077 7.38257 21.8339 5.58746 19.8212L3.38782 21.8339C5.73916 24.458 9.12711 26.0885 12.8943 26.0885V23.1077Z" fill="url(#paint4_linear)"/>
<path d="M6.2954 5.80866L4.29803 3.59216C1.69386 5.96153 0.0757294 9.37545 0.0757294 13.1715H3.03387C3.03387 10.2671 4.29803 7.61753 6.2954 5.80866Z" fill="url(#paint5_linear)"/>
</g>
<defs>
<linearGradient id="paint0_linear" x1="3.52722" y1="21.9298" x2="0.506818" y2="13.1321" gradientUnits="userSpaceOnUse">
<stop offset="0.1444" stop-color="#F2E913"/>
<stop offset="0.3037" stop-color="#E7E518"/>
<stop offset="0.5823" stop-color="#CADB26"/>
<stop offset="0.891" stop-color="#A3CD39"/>
</linearGradient>
<linearGradient id="paint1_linear" x1="4.68604" y1="3.71441" x2="12.354" y2="0.769888" gradientUnits="userSpaceOnUse">
<stop offset="0.0592" stop-color="#0FA8E0"/>
<stop offset="0.5385" stop-color="#0099F9"/>
<stop offset="0.9234" stop-color="#0291EB"/>
</linearGradient>
<linearGradient id="paint2_linear" x1="12.0633" y1="23.5535" x2="21.2047" y2="21.4716" gradientUnits="userSpaceOnUse">
<stop offset="0.1226" stop-color="#A3CD39"/>
<stop offset="0.2846" stop-color="#86C339"/>
<stop offset="0.8693" stop-color="#21A038"/>
</linearGradient>
<linearGradient id="paint3_linear" x1="12.2866" y1="2.12787" x2="19.8871" y2="4.49093" gradientUnits="userSpaceOnUse">
<stop offset="0.0566" stop-color="#0291EB"/>
<stop offset="0.79" stop-color="#0C8ACB"/>
</linearGradient>
<linearGradient id="paint4_linear" x1="4.13997" y1="22.3061" x2="12.3037" y2="25.3797" gradientUnits="userSpaceOnUse">
<stop offset="0.1324" stop-color="#F2E913"/>
<stop offset="0.2977" stop-color="#EBE716"/>
<stop offset="0.5306" stop-color="#D9E01F"/>
<stop offset="0.8023" stop-color="#BBD62D"/>
<stop offset="0.9829" stop-color="#A3CD39"/>
</linearGradient>
<linearGradient id="paint5_linear" x1="2.34232" y1="13.5316" x2="5.60766" y2="4.97212" gradientUnits="userSpaceOnUse">
<stop offset="0.0698" stop-color="#A3CD39"/>
<stop offset="0.2599" stop-color="#81C55F"/>
<stop offset="0.9216" stop-color="#0FA8E0"/>
</linearGradient>
<clipPath id="clip0">
<rect width="94.25" height="26" fill="white"/>
</clipPath>
</defs>
</svg>
