<svg width="36" height="36" viewBox="0 0 36 36" fill="none" xmlns="http://www.w3.org/2000/svg">
<path d="M16.6933 2.36925C16.6933 2.5965 16.9183 3.159 16.9183 4.16925C16.9183 5.51925 16.6888 7.20562 16.2388 9.11812C15.674 7.32037 15.4502 5.74312 15.4502 4.39313C15.4502 3.37838 15.6752 2.817 15.7899 2.59313C16.0149 2.25338 16.1297 2.25338 16.3535 2.25338C16.4683 2.25338 16.5785 2.25338 16.6933 2.36925ZM21.2023 23.6273C18.3808 23.9648 15.3365 24.5273 12.515 25.3148C14.0979 22.3864 15.4502 19.1272 16.5785 15.9772C17.8217 18.5647 19.3989 21.2625 21.2023 23.6273ZM27.8612 25.2045C29.8929 25.2045 31.4702 25.4295 32.5974 25.767C32.9383 25.8806 33.8417 26.2192 33.8417 26.667C33.8417 27.0011 33.8417 27.6784 31.9247 27.6784C29.8929 27.6784 27.9759 26.7773 26.168 25.3136C26.7328 25.3136 27.2964 25.3136 27.8612 25.2045ZM7.32765 29.475C5.5254 32.0625 3.83227 33.75 2.59027 33.75C2.36527 33.75 2.25052 33.6353 2.25052 33.6353C2.25052 32.2875 4.28227 30.8228 7.32765 29.475ZM10.9412 28.2319C14.5513 26.9921 18.8387 26.091 23.0124 25.6444C25.6089 28.2274 28.6543 30.0274 31.8144 30.0274C35.5382 30.0274 35.9882 27.7774 35.9882 26.7683C35.9882 25.758 35.4234 24.5182 33.1667 23.7319C31.136 23.0602 27.8657 22.9466 23.8022 23.2841C21.2068 20.4716 18.95 16.6489 17.4819 12.9364C18.6103 9.45112 19.1739 6.41138 19.1739 4.275C19.1739 3.03638 18.9489 2.13975 18.6103 1.4625C18.1603 0.5625 17.3672 0 16.3535 0C15.341 0 14.4365 0.5625 13.8729 1.4625C13.4184 2.13975 13.1934 3.15 13.1934 4.38863C13.1934 6.52612 13.982 9.56588 15.2252 12.8261C13.7582 17.3239 11.6162 22.2728 9.3594 26.2103C4.0584 28.0103 -0.00622559 30.5989 -0.00622559 33.6353C-0.00622559 34.7603 1.0119 36 2.59027 36C5.2959 36 8.23103 32.625 10.9412 28.2319Z" fill="#F60606"/>
</svg>
