<svg width="21" height="25" viewBox="0 0 21 25" fill="none" xmlns="http://www.w3.org/2000/svg">
<path fill-rule="evenodd" clip-rule="evenodd" d="M1.30388 24.3125C1.07577 24.3131 0.85147 24.2539 0.653399 24.1407C0.455328 24.0276 0.290415 23.8644 0.175132 23.6676C0.0897796 23.5209 0.0343912 23.3587 0.0121768 23.1904C-0.0100377 23.0221 0.00136348 22.8511 0.0457196 22.6873C0.0900756 22.5235 0.166505 22.3701 0.270578 22.236C0.374651 22.1019 0.504298 21.9898 0.652007 21.9062L17.0959 12.5008L2.60413 4.21021V16.8365C2.60413 17.5487 2.02138 18.1262 1.30213 18.1262C1.132 18.127 0.96337 18.0943 0.805887 18.0299C0.648405 17.9655 0.505155 17.8707 0.384322 17.7509C0.26349 17.6312 0.167444 17.4888 0.101673 17.3318C0.0359017 17.1749 0.00169492 17.0066 0.00100708 16.8365V1.97721C0.00100708 1.51521 0.249507 1.08996 0.652007 0.859833C0.850174 0.746737 1.0744 0.687256 1.30257 0.687256C1.53074 0.687256 1.75497 0.746737 1.95313 0.859833L20.3491 11.3843C20.5465 11.4964 20.7107 11.6589 20.8249 11.8551C20.9391 12.0513 20.9993 12.2743 20.9993 12.5013C20.9993 12.7283 20.9391 12.9513 20.8249 13.1475C20.7107 13.3437 20.5465 13.5061 20.3491 13.6182L1.95313 24.1401C1.75549 24.2533 1.53164 24.3127 1.30388 24.3125Z" fill="white"/>
</svg>
