<svg width="88" height="24" viewBox="0 0 88 24" fill="none" xmlns="http://www.w3.org/2000/svg">
<path d="M12.1238 9.4508L18.8521 19.1666H15.0853L9.29217 10.8796H6.51251V19.1666H3.21329V3.81355H0.719391L2.38199 0.722168H6.51251V8.02205H9.29217L14.7995 0.722168H18.5404L12.1238 9.4508ZM17.839 12.5162C17.839 11.0788 18.168 9.82314 18.8262 8.74938C19.4669 7.74488 20.3415 6.97422 21.4499 6.43739C22.5583 5.90047 23.7533 5.63205 25.0349 5.63205C26.3512 5.63205 27.5375 5.8918 28.5939 6.41138C29.7023 6.94822 30.5769 7.74489 31.2177 8.80139C31.8585 9.84047 32.1789 11.0788 32.1789 12.5162C32.1789 13.9711 31.8585 15.2266 31.2177 16.2831C30.5769 17.3222 29.7023 18.1276 28.5939 18.6991C27.5028 19.2532 26.3165 19.5303 25.0349 19.5303C23.7707 19.5303 22.5843 19.2532 21.4759 18.6991C20.3502 18.1448 19.4583 17.3395 18.8002 16.2831C18.1593 15.2093 17.839 13.9537 17.839 12.5162ZM73.8737 6.04772H76.8093V7.84014C77.2596 7.14739 77.8571 6.61922 78.6018 6.25547C79.3638 5.87447 80.3423 5.68397 81.5373 5.68397C82.767 5.68397 83.8583 5.96105 84.8108 6.5153C85.7283 7.0868 86.4383 7.9008 86.9408 8.95722C87.4608 9.99638 87.7199 11.1914 87.7199 12.5422C87.7199 13.9104 87.4608 15.1227 86.9408 16.1791C86.4383 17.2183 85.7283 18.0236 84.8108 18.5951C84.3774 18.8896 83.8666 19.1061 83.2778 19.2446C82.7063 19.4005 82.1262 19.4784 81.5373 19.4784C80.5155 19.4784 79.7535 19.4005 79.2513 19.2446C78.2122 18.9328 77.4761 18.4133 77.0431 17.6859V23.8167H73.8737V6.04772ZM33.8675 6.04772H37.0108V11.0355H42.3883V6.04772H45.5057V19.1666H42.3883V13.6333H37.0108V19.1666H33.8675V6.04772ZM46.8825 6.04772H58.9623V8.54155H54.4941V19.1666H51.2988V8.54155H46.8825V6.04772ZM63.3007 6.04772C64.4783 9.26897 65.5522 12.4556 66.522 15.6076C67.4398 12.4902 68.479 9.30364 69.6393 6.04772H72.8087L67.9767 19.4264C67.5784 20.5175 67.1974 21.3575 66.8337 21.9463C66.4354 22.5351 65.9418 22.9767 65.353 23.2712C64.7814 23.5829 64.0194 23.7388 63.0669 23.7388C62.53 23.7388 62.2356 23.7301 62.1837 23.7128L61.1185 21.2189C61.4476 21.2882 61.8546 21.3228 62.3395 21.3228C62.9283 21.3228 63.4046 21.2362 63.7683 21.0631C64.0973 20.9245 64.3485 20.734 64.5217 20.4916C64.6948 20.2664 64.8421 19.9806 64.9632 19.6342L59.9755 6.04772H63.3007ZM21.0343 12.4902C21.0343 13.9277 21.3807 15.0275 22.0734 15.7895C22.7662 16.5342 23.7273 16.9066 24.957 16.9066C26.2039 16.9066 27.1738 16.5342 27.8665 15.7895C28.5766 15.0275 28.9317 13.9277 28.9317 12.4902C28.9317 11.0875 28.5853 10.031 27.8925 9.32089C27.1998 8.59355 26.2213 8.22989 24.957 8.22989C23.71 8.22989 22.7402 8.59355 22.0474 9.32089C21.372 10.031 21.0343 11.0875 21.0343 12.4902ZM76.9652 12.5162C76.9998 13.8151 77.3462 14.8543 78.0043 15.6336C78.6624 16.413 79.589 16.8026 80.784 16.8026C81.979 16.8026 82.8968 16.413 83.5374 15.6336C84.1958 14.8543 84.5332 13.8151 84.5508 12.5162C84.5332 11.2346 84.1958 10.2128 83.5374 9.4508C82.8968 8.67147 81.979 8.2818 80.784 8.2818C79.589 8.2818 78.6624 8.6628 78.0043 9.4248C77.3462 10.1869 76.9998 11.2173 76.9652 12.5162Z" fill="#222222"/>
</svg>
